<svg id="visual" viewBox="0 0 960 300" width="960" height="300" xmlns="http://www.w3.org/2000/svg" xmlns:xlink="http://www.w3.org/1999/xlink" version="1.1"><rect x="0" y="0" width="960" height="300" fill="#001220"></rect><path d="M0 112L22.8 109.8C45.7 107.7 91.3 103.3 137 100.3C182.7 97.3 228.3 95.7 274 98C319.7 100.3 365.3 106.7 411.2 106C457 105.3 503 97.7 548.8 94.5C594.7 91.3 640.3 92.7 686 96.3C731.7 100 777.3 106 823 107.8C868.7 109.7 914.3 107.3 937.2 106.2L960 105L960 0L937.2 0C914.3 0 868.7 0 823 0C777.3 0 731.7 0 686 0C640.3 0 594.7 0 548.8 0C503 0 457 0 411.2 0C365.3 0 319.7 0 274 0C228.3 0 182.7 0 137 0C91.3 0 45.7 0 22.8 0L0 0Z" fill="#479fe7"></path><path d="M0 88L22.8 87.8C45.7 87.7 91.3 87.3 137 88.8C182.7 90.3 228.3 93.7 274 91.5C319.7 89.3 365.3 81.7 411.2 75.3C457 69 503 64 548.8 66.5C594.7 69 640.3 79 686 79.7C731.7 80.3 777.3 71.7 823 68.5C868.7 65.3 914.3 67.7 937.2 68.8L960 70L960 0L937.2 0C914.3 0 868.7 0 823 0C777.3 0 731.7 0 686 0C640.3 0 594.7 0 548.8 0C503 0 457 0 411.2 0C365.3 0 319.7 0 274 0C228.3 0 182.7 0 137 0C91.3 0 45.7 0 22.8 0L0 0Z" fill="#3c7ec1"></path><path d="M0 52L22.8 54.8C45.7 57.7 91.3 63.3 137 64.2C182.7 65 228.3 61 274 57.8C319.7 54.7 365.3 52.3 411.2 55.2C457 58 503 66 548.8 67C594.7 68 640.3 62 686 62.3C731.7 62.7 777.3 69.3 823 72.8C868.7 76.3 914.3 76.7 937.2 76.8L960 77L960 0L937.2 0C914.3 0 868.7 0 823 0C777.3 0 731.7 0 686 0C640.3 0 594.7 0 548.8 0C503 0 457 0 411.2 0C365.3 0 319.7 0 274 0C228.3 0 182.7 0 137 0C91.3 0 45.7 0 22.8 0L0 0Z" fill="#2f5f9c"></path><path d="M0 51L22.8 50.2C45.7 49.3 91.3 47.7 137 46.3C182.7 45 228.3 44 274 45.3C319.7 46.7 365.3 50.3 411.2 49.7C457 49 503 44 548.8 44.2C594.7 44.3 640.3 49.7 686 49.2C731.7 48.7 777.3 42.3 823 40.8C868.7 39.3 914.3 42.7 937.2 44.3L960 46L960 0L937.2 0C914.3 0 868.7 0 823 0C777.3 0 731.7 0 686 0C640.3 0 594.7 0 548.8 0C503 0 457 0 411.2 0C365.3 0 319.7 0 274 0C228.3 0 182.7 0 137 0C91.3 0 45.7 0 22.8 0L0 0Z" fill="#214178"></path><path d="M0 18L22.8 17C45.7 16 91.3 14 137 14C182.7 14 228.3 16 274 19C319.7 22 365.3 26 411.2 28C457 30 503 30 548.8 29.2C594.7 28.3 640.3 26.7 686 27.2C731.7 27.7 777.3 30.3 823 31.3C868.7 32.3 914.3 31.7 937.2 31.3L960 31L960 0L937.2 0C914.3 0 868.7 0 823 0C777.3 0 731.7 0 686 0C640.3 0 594.7 0 548.8 0C503 0 457 0 411.2 0C365.3 0 319.7 0 274 0C228.3 0 182.7 0 137 0C91.3 0 45.7 0 22.8 0L0 0Z" fill="#122655"></path></svg>